<svg xmlns="http://www.w3.org/2000/svg" xmlns:xlink="http://www.w3.org/1999/xlink" viewBox="0 0 1080.809 249.636"><defs><linearGradient id="linear-gradient" x1="73.071" y1="489.708" x2="201.487" y2="268.912" gradientUnits="userSpaceOnUse"><stop offset="0" stop-color="#314052"/><stop offset="1" stop-color="#3a4859"/></linearGradient><linearGradient id="linear-gradient-2" x1="331.077" y1="486.525" x2="59.577" y2="486.525" xlink:href="#linear-gradient"/><linearGradient id="linear-gradient-3" x1="181.798" y1="256.489" x2="327.98" y2="507.232" xlink:href="#linear-gradient"/><linearGradient id="linear-gradient-4" x1="156.686" y1="436.614" x2="195.4" y2="360.966" xlink:href="#linear-gradient"/><linearGradient id="linear-gradient-5" x1="245.022" y1="442.852" x2="147.127" y2="441.517" xlink:href="#linear-gradient"/><linearGradient id="linear-gradient-6" x1="192.469" y1="365.694" x2="244.087" y2="445.792" xlink:href="#linear-gradient"/></defs><path d="M121.267,446.263c-3.659,6.338-11.838,14.517-18.175,18.175L58.539,490.161c-6.338,3.659-8.529,1.468-4.87-4.87L183.348,260.678c3.659-6.338,6.652-5.536,6.652,1.782v51.446c0,7.318-2.993,18.49-6.652,24.827Z" transform="translate(-51.897 -256.402)" style="fill:url(#linear-gradient)"/><path d="M257.412,467.011c7.318,0,18.491,2.993,24.828,6.652L326.8,499.387c6.337,3.658,5.535,6.652-1.783,6.652H65.634c-7.317,0-8.119-2.994-1.782-6.652l44.562-25.724c6.337-3.659,17.51-6.652,24.827-6.652Z" transform="translate(-51.897 -256.402)" style="fill:url(#linear-gradient-2)"/><path d="M287.553,464.438c-6.337-3.659-14.516-11.837-18.175-18.175L207.3,338.733c-3.659-6.337-6.653-17.509-6.653-24.827V262.46c0-7.318,2.994-8.12,6.653-1.783L336.985,485.292c3.659,6.337,1.467,8.529-4.87,4.87Z" transform="translate(-51.897 -256.402)" style="fill:url(#linear-gradient-3)"/><path d="M190,400.956c0,7.318-5.185,16.3-11.522,19.957L144.569,440.49c-6.338,3.658-8.529,1.467-4.87-4.87l43.649-75.6c3.659-6.337,6.652-5.535,6.652,1.783Z" transform="translate(-51.897 -256.402)" style="fill:url(#linear-gradient-4)"/><path d="M183.8,430.13c6.337-3.659,16.706-3.659,23.043,0l33.911,19.583c6.337,3.66,5.534,6.654-1.783,6.654h-87.3c-7.317,0-8.12-2.994-1.783-6.654Z" transform="translate(-51.897 -256.402)" style="fill:url(#linear-gradient-5)"/><path d="M250.946,435.62c3.659,6.337,1.467,8.528-4.87,4.87l-33.909-19.577c-6.337-3.659-11.523-12.639-11.523-19.957V361.8c0-7.318,2.994-8.12,6.653-1.783Z" transform="translate(-51.897 -256.402)" style="fill:url(#linear-gradient-6)"/><path d="M401.539,447.3h-20.7V338.421H343.589V320.663h95.2v17.758H401.539Z" transform="translate(-51.897 -256.402)"/><path d="M504.617,349.768a49.044,49.044,0,0,1,10.135.866L512.76,369.6a38.474,38.474,0,0,0-9.009-1.039q-12.213,0-19.793,7.968t-7.579,20.7V447.3H456.023V351.5h15.938l2.685,16.891h1.04a37.956,37.956,0,0,1,12.43-13.6A29.556,29.556,0,0,1,504.617,349.768Z" transform="translate(-51.897 -256.402)"/><path d="M531.3,326.12q0-5.457,2.988-8.4t8.532-2.945q5.37,0,8.359,2.945t2.989,8.4a11.063,11.063,0,0,1-2.989,8.186q-2.988,2.988-8.359,2.988-5.544,0-8.532-2.988A11.062,11.062,0,0,1,531.3,326.12ZM552.865,447.3H532.509V351.5h20.356Z" transform="translate(-51.897 -256.402)"/><path d="M641.912,447.3l-4.072-13.34h-.694q-6.928,8.751-13.945,11.91t-18.017,3.162q-14.12,0-22.045-7.623t-7.926-21.568q0-14.812,11-22.348t33.522-8.229l16.545-.52v-5.111q0-9.18-4.287-13.729t-13.3-4.547a46,46,0,0,0-14.119,2.165,106.777,106.777,0,0,0-12.994,5.111L585,358.083a70.947,70.947,0,0,1,17.065-6.193,78.558,78.558,0,0,1,17.5-2.122q18.276,0,27.59,7.969t9.311,25.033V447.3Zm-30.318-13.859q11.085,0,17.8-6.194t6.712-17.367v-8.316l-12.3.52q-14.382.519-20.92,4.807t-6.54,13.123q0,6.412,3.811,9.919T611.594,433.444Z" transform="translate(-51.897 -256.402)"/><path d="M769.157,447.3H748.715V388.4q0-11.087-4.461-16.545T730.092,366.4q-12.909,0-18.884,7.623t-5.977,25.553V447.3H684.876V351.5h15.937l2.859,12.56h1.04a28.344,28.344,0,0,1,12.3-10.568,41.249,41.249,0,0,1,17.671-3.724q34.475,0,34.474,35.081Z" transform="translate(-51.897 -256.402)"/><path d="M878.387,351.5v11.175l-16.371,3.031a26.445,26.445,0,0,1,3.724,7.45,29.379,29.379,0,0,1,1.473,9.355q0,14.813-10.222,23.3T828.84,414.3a45.549,45.549,0,0,1-8.316-.693q-6.584,4.072-6.583,9.528a5.292,5.292,0,0,0,3.075,4.937q3.074,1.647,11.3,1.646h16.718q15.851,0,24.08,6.757t8.23,19.489q0,16.286-13.427,25.12t-38.806,8.835q-19.578,0-29.885-6.93t-10.307-19.749a21.014,21.014,0,0,1,5.587-14.855q5.586-6.021,15.636-8.359a15.282,15.282,0,0,1-6.714-5.587,14.1,14.1,0,0,1-2.642-8.1,13.947,13.947,0,0,1,3.031-9.1,35.02,35.02,0,0,1,9.009-7.362,26.666,26.666,0,0,1-12.083-10.438,30.7,30.7,0,0,1-4.635-16.934q0-15.593,9.832-24.167t28.022-8.576a68.289,68.289,0,0,1,8.532.563,54.1,54.1,0,0,1,6.713,1.169ZM803.113,462.2a11.2,11.2,0,0,0,5.934,10.135q5.932,3.55,16.675,3.552,16.63,0,24.773-4.765t8.143-12.646q0-6.236-4.461-8.878t-16.588-2.643H822.17q-8.75,0-13.9,4.115A13.489,13.489,0,0,0,803.113,462.2Zm8.749-79.69q0,9.009,4.634,13.859t13.3,4.85q17.67,0,17.67-18.883,0-9.354-4.374-14.422t-13.3-5.068q-8.836,0-13.384,5.025T811.862,382.511Z" transform="translate(-51.897 -256.402)"/><path d="M963.708,447.3l-2.858-12.56h-1.039a28.882,28.882,0,0,1-12.084,10.481,40.4,40.4,0,0,1-17.887,3.811q-17.412,0-25.986-8.662t-8.576-26.246V351.5h20.529v59.076q0,11,4.5,16.5t14.119,5.5q12.819,0,18.84-7.666t6.02-25.683V351.5h20.442v95.8Z" transform="translate(-51.897 -256.402)"/><path d="M1029.107,447.3h-20.355V312.521h20.355Z" transform="translate(-51.897 -256.402)"/><path d="M1118.154,447.3l-4.071-13.34h-.693q-6.93,8.751-13.946,11.91t-18.017,3.162q-14.12,0-22.045-7.623t-7.926-21.568q0-14.812,11-22.348t33.522-8.229l16.544-.52v-5.111q0-9.18-4.287-13.729t-13.3-4.547a46,46,0,0,0-14.119,2.165,106.7,106.7,0,0,0-12.993,5.111l-6.583-14.553a70.932,70.932,0,0,1,17.065-6.193,78.56,78.56,0,0,1,17.5-2.122q18.274,0,27.589,7.969t9.311,25.033V447.3Zm-30.317-13.859q11.087,0,17.8-6.194t6.713-17.367v-8.316l-12.3.52q-14.38.519-20.919,4.807t-6.54,13.123q0,6.412,3.811,9.919T1087.837,433.444Z" transform="translate(-51.897 -256.402)"/></svg>